<svg width="36" height="23" viewBox="0 0 36 23" fill="none" xmlns="http://www.w3.org/2000/svg">
<path d="M1.17328 0.6H6.69328V1.42H2.19328V5.62H6.37328L6.21328 6.42H2.19328V12.2H6.69328V13H1.17328V0.6ZM9.25844 0.6H10.2784V12.2H14.2984V13H9.25844V0.6ZM16.5428 0.6H17.5628V13H16.5428V0.6ZM20.7022 13V0.6H21.7422L25.4422 10.76L25.4622 10.86L25.4822 10.88V0.6H26.5022V13H25.4222L21.7822 3.24L21.7222 3.1V13H20.7022ZM28.8272 13L31.4672 0.6H32.9872L35.5872 13H34.5272L33.8872 9.98L34.1072 10.18H30.2872L30.4672 9.98L29.8672 13H28.8272ZM30.4872 9.48L30.3872 9.36H34.0272L33.8872 9.48L32.4272 1.9L32.3872 1.76H32.0472L32.0072 1.9L30.4872 9.48Z" fill="black"/>
<path d="M2.61031 22L1.31231 15.18H1.87331L2.89631 20.867L2.90731 21.021H2.91831V20.867L3.97431 15.532H4.41431L5.38231 20.867L5.39331 21.021H5.40431L5.41531 20.867L6.40531 15.18H6.97731L5.70131 22H5.12931L4.21631 16.863V16.742H4.20531L4.19431 16.863L3.18231 22H2.61031ZM7.85284 15.18H10.8888V15.631H8.41384V17.941H10.7128L10.6248 18.381H8.41384V21.56H10.8888V22H7.85284V15.18ZM11.8597 15.18H12.4207V21.56H14.6317V22H11.8597V15.18ZM15.4261 15.18H15.9871V21.56H18.1981V22H15.4261V15.18ZM18.9925 22V15.18H19.5645L21.5995 20.768L21.6105 20.823L21.6215 20.834V15.18H22.1825V22H21.5885L19.5865 16.632L19.5535 16.555V22H18.9925ZM23.4612 15.18H26.4972V15.631H24.0222V17.941H26.3212L26.2332 18.381H24.0222V21.56H26.4972V22H23.4612V15.18ZM28.9201 22.044C28.6047 22.0367 28.3261 22.011 28.0841 21.967C27.8421 21.9157 27.6477 21.8277 27.5011 21.703C27.3617 21.5783 27.2921 21.3987 27.2921 21.164V19.745L27.8531 19.668V20.966C27.8531 21.164 27.9264 21.318 28.0731 21.428C28.2271 21.538 28.4984 21.593 28.8871 21.593C29.1511 21.593 29.3491 21.5673 29.4811 21.516C29.6204 21.4573 29.7121 21.3693 29.7561 21.252C29.8074 21.1273 29.8331 20.9697 29.8331 20.779V19.778C29.8331 19.5067 29.7671 19.294 29.6351 19.14C29.5104 18.9787 29.3234 18.8613 29.0741 18.788L28.2161 18.557C27.8934 18.4543 27.6587 18.326 27.5121 18.172C27.3654 18.018 27.2921 17.776 27.2921 17.446V16.236C27.2921 15.9133 27.3617 15.675 27.5011 15.521C27.6404 15.367 27.8311 15.268 28.0731 15.224C28.3151 15.1727 28.5937 15.147 28.9091 15.147C29.2244 15.147 29.4884 15.1727 29.7011 15.224C29.9211 15.2753 30.0897 15.3633 30.2071 15.488C30.3317 15.6127 30.3941 15.7923 30.3941 16.027V17.446L29.8331 17.545V16.269C29.8331 16.0197 29.7707 15.8437 29.6461 15.741C29.5214 15.631 29.2684 15.576 28.8871 15.576C28.4984 15.576 28.2271 15.6383 28.0731 15.763C27.9264 15.8877 27.8531 16.1077 27.8531 16.423V17.347C27.8531 17.5817 27.9191 17.7687 28.0511 17.908C28.1904 18.04 28.3627 18.1353 28.5681 18.194L29.4591 18.447C29.7964 18.5423 30.0347 18.678 30.1741 18.854C30.3207 19.03 30.3941 19.2867 30.3941 19.624V20.922C30.3941 21.2373 30.3354 21.4757 30.2181 21.637C30.1007 21.7983 29.9321 21.9047 29.7121 21.956C29.4994 22.0073 29.2354 22.0367 28.9201 22.044ZM32.9699 22.044C32.6545 22.0367 32.3759 22.011 32.1339 21.967C31.8919 21.9157 31.6975 21.8277 31.5509 21.703C31.4115 21.5783 31.3419 21.3987 31.3419 21.164V19.745L31.9029 19.668V20.966C31.9029 21.164 31.9762 21.318 32.1229 21.428C32.2769 21.538 32.5482 21.593 32.9369 21.593C33.2009 21.593 33.3989 21.5673 33.5309 21.516C33.6702 21.4573 33.7619 21.3693 33.8059 21.252C33.8572 21.1273 33.8829 20.9697 33.8829 20.779V19.778C33.8829 19.5067 33.8169 19.294 33.6849 19.14C33.5602 18.9787 33.3732 18.8613 33.1239 18.788L32.2659 18.557C31.9432 18.4543 31.7085 18.326 31.5619 18.172C31.4152 18.018 31.3419 17.776 31.3419 17.446V16.236C31.3419 15.9133 31.4115 15.675 31.5509 15.521C31.6902 15.367 31.8809 15.268 32.1229 15.224C32.3649 15.1727 32.6435 15.147 32.9589 15.147C33.2742 15.147 33.5382 15.1727 33.7509 15.224C33.9709 15.2753 34.1395 15.3633 34.2569 15.488C34.3815 15.6127 34.4439 15.7923 34.4439 16.027V17.446L33.8829 17.545V16.269C33.8829 16.0197 33.8205 15.8437 33.6959 15.741C33.5712 15.631 33.3182 15.576 32.9369 15.576C32.5482 15.576 32.2769 15.6383 32.1229 15.763C31.9762 15.8877 31.9029 16.1077 31.9029 16.423V17.347C31.9029 17.5817 31.9689 17.7687 32.1009 17.908C32.2402 18.04 32.4125 18.1353 32.6179 18.194L33.5089 18.447C33.8462 18.5423 34.0845 18.678 34.2239 18.854C34.3705 19.03 34.4439 19.2867 34.4439 19.624V20.922C34.4439 21.2373 34.3852 21.4757 34.2679 21.637C34.1505 21.7983 33.9819 21.9047 33.7619 21.956C33.5492 22.0073 33.2852 22.0367 32.9699 22.044Z" fill="black"/>
</svg>
